<?xml version="1.0" standalone="no"?>
<!DOCTYPE svg PUBLIC "-//W3C//DTD SVG 20010904//EN"
 "http://www.w3.org/TR/2001/REC-SVG-20010904/DTD/svg10.dtd">
<svg version="1.0" xmlns="http://www.w3.org/2000/svg"
 width="140.000000pt" height="61.000000pt" viewBox="0 0 140.000000 61.000000"
 preserveAspectRatio="xMidYMid meet">
<metadata>
Created by potrace 1.10, written by Peter Selinger 2001-2011
</metadata>
<g transform="translate(0.000000,61.000000) scale(0.100000,-0.100000)"
fill="#000000" stroke="none">
<path d="M1030 495 c-17 -18 -20 -30 -15 -54 4 -21 2 -35 -8 -45 -13 -13 -17
-13 -32 3 -20 23 -79 36 -102 23 -11 -6 -25 -6 -40 1 -16 7 -26 7 -38 -3 -10
-9 -19 -9 -27 -2 -18 14 -122 9 -141 -7 -13 -11 -20 -10 -39 3 -32 23 -54 20
-78 -11 -18 -23 -21 -37 -17 -74 4 -32 1 -53 -8 -65 -13 -17 -14 -10 -15 58 0
68 -3 79 -22 92 -12 9 -30 16 -40 16 -11 0 -18 7 -18 19 0 35 -28 46 -119 47
-123 2 -121 4 -121 -172 0 -138 1 -144 23 -158 12 -9 32 -13 45 -9 23 6 30 22
34 83 3 34 3 35 55 37 49 3 53 1 53 -20 0 -27 33 -82 57 -95 24 -13 153 -9
177 5 14 8 25 7 46 -5 25 -15 30 -14 53 1 24 15 26 24 29 89 3 65 5 73 23 76
20 3 21 -1 17 -62 -4 -72 16 -115 53 -115 41 0 55 22 55 87 0 33 3 67 6 76 12
32 24 3 24 -58 0 -52 4 -66 23 -84 27 -25 44 -27 71 -7 16 12 22 12 43 -3 24
-15 28 -15 54 1 27 15 31 15 58 -1 28 -16 31 -15 50 2 23 21 28 65 9 84 -15
15 -54 16 -63 2 -16 -26 -25 -3 -25 68 0 43 -5 83 -11 89 -8 8 -8 13 0 17 17
11 13 51 -6 68 -32 27 -50 28 -73 3z m60 -20 c17 -21 5 -45 -24 -45 -27 0 -42
26 -25 46 15 18 33 18 49 -1z m-730 -31 c0 -25 -1 -26 -65 -22 l-65 3 0 -37 0
-38 60 0 c57 0 60 -1 60 -25 0 -24 -3 -25 -60 -25 l-60 0 0 -60 c0 -60 0 -60
-30 -60 l-30 0 0 145 0 145 95 0 95 0 0 -26z m400 -70 c0 -18 -5 -24 -23 -24
-38 0 -47 -19 -47 -97 0 -73 0 -73 -27 -73 l-28 0 0 110 0 110 28 0 c19 0 27
-5 27 -17 0 -15 1 -15 13 -1 13 17 38 28 50 21 4 -2 7 -15 7 -29z m-411 17
c24 -15 -4 -20 -76 -12 -7 0 -13 6 -13 11 0 12 70 13 89 1z m101 -70 c0 -93
13 -114 55 -87 23 15 25 22 25 91 l0 75 30 0 30 0 0 -110 0 -110 -30 0 c-22 0
-30 5 -30 18 -1 16 -1 16 -11 0 -14 -26 -83 -24 -109 2 -17 17 -20 33 -20 110
l0 90 30 0 30 0 0 -79z m395 57 l-7 -23 17 23 c24 33 87 31 114 -4 17 -22 21
-41 21 -110 l0 -84 -30 0 -30 0 0 80 c0 68 -3 81 -19 90 -25 13 -27 13 -45 -6
-12 -11 -16 -36 -16 -90 l0 -74 -30 0 -30 0 0 110 0 110 31 0 c27 0 30 -3 24
-22z m255 -88 l0 -110 -30 0 -30 0 0 110 0 110 30 0 30 0 0 -110z m104 -73 c9
-15 7 -21 -9 -33 -10 -8 -24 -13 -29 -11 -17 6 -29 34 -23 51 9 22 46 17 61
-7z"/>
</g>
</svg>
