<?xml version="1.0" standalone="no"?>
<!DOCTYPE svg PUBLIC "-//W3C//DTD SVG 20010904//EN"
 "http://www.w3.org/TR/2001/REC-SVG-20010904/DTD/svg10.dtd">
<svg version="1.0" xmlns="http://www.w3.org/2000/svg"
 width="140.000000pt" height="61.000000pt" viewBox="0 0 140.000000 61.000000"
 preserveAspectRatio="xMidYMid meet">
<metadata>
Created by potrace 1.10, written by Peter Selinger 2001-2011
</metadata>
<g transform="translate(0.000000,61.000000) scale(0.100000,-0.100000)"
fill="#000000" stroke="none">
<path d="M1020 495 c-21 -23 -23 -29 -13 -55 14 -38 1 -47 -33 -25 -28 18 -28
18 -213 16 -70 -1 -130 -6 -137 -12 -9 -7 -19 -7 -33 0 -31 17 -56 13 -86 -15
l-27 -25 -12 23 c-6 13 -21 24 -34 26 -12 2 -29 16 -39 32 -22 38 -29 40 -130
41 -123 1 -123 2 -123 -176 0 -125 2 -144 18 -158 42 -38 102 -8 102 49 0 38
16 54 55 54 27 0 32 -5 45 -42 10 -27 27 -50 49 -65 30 -20 41 -22 105 -17 39
4 77 11 84 17 9 7 16 7 24 -1 7 -7 26 -12 43 -12 39 0 56 27 64 100 8 71 25
67 29 -7 2 -35 9 -65 19 -75 24 -27 68 -23 92 8 l21 27 21 -27 c22 -27 66 -35
86 -15 8 8 17 8 31 0 27 -14 65 -14 79 0 9 9 20 9 44 -1 30 -13 33 -12 55 14
13 15 24 34 24 41 0 21 -46 48 -71 42 -26 -7 -28 -1 -32 122 -4 94 -6 106 -27
123 -30 25 -52 23 -80 -7z m70 -20 c18 -21 5 -45 -25 -45 -14 0 -28 7 -31 15
-7 17 12 45 31 45 7 0 18 -7 25 -15z m-728 -30 c-4 -24 -8 -25 -68 -25 l-64 0
0 -35 0 -35 60 0 c57 0 60 -1 60 -25 0 -24 -3 -25 -60 -25 l-60 0 0 -60 c0
-60 0 -60 -30 -60 l-30 0 0 145 0 145 99 0 98 0 -5 -25z m398 -71 c0 -18 -5
-24 -23 -24 -38 0 -47 -19 -47 -97 l0 -73 -29 0 -29 0 2 110 1 110 28 0 c15 0
27 -4 27 -9 0 -6 12 -4 27 4 32 17 43 12 43 -21z m-310 -54 c0 -67 3 -81 18
-89 14 -7 25 -6 40 5 19 13 22 25 22 90 l0 74 30 0 30 0 0 -110 0 -110 -30 0
c-22 0 -30 5 -30 17 0 15 -1 15 -14 -2 -20 -27 -84 -25 -108 4 -14 19 -18 41
-18 112 l0 89 30 0 30 0 0 -80z m396 63 c-6 -16 -6 -16 12 0 19 17 78 23 98 9
24 -16 34 -54 34 -131 l0 -81 -30 0 -30 0 0 80 c0 65 -3 81 -17 88 -20 10 -44
5 -55 -12 -4 -6 -8 -44 -8 -83 l0 -73 -30 0 -30 0 0 110 0 110 31 0 c25 0 30
-3 25 -17z m254 -93 l0 -110 -30 0 -30 0 0 110 0 110 30 0 30 0 0 -110z m108
-76 c4 -27 -21 -47 -48 -39 -20 6 -28 44 -13 59 15 15 58 1 61 -20z"/>
</g>
</svg>
